<?xml version="1.0" encoding="utf-8"?>
<!-- Generator: Adobe Illustrator 19.0.0, SVG Export Plug-In . SVG Version: 6.00 Build 0)  -->
<svg version="1.1" id="Capa_1" xmlns="http://www.w3.org/2000/svg" xmlns:xlink="http://www.w3.org/1999/xlink" x="0px" y="0px"
	 viewBox="0 0 800 800" style="enable-background:new 0 0 800 800;" xml:space="preserve">
<style type="text/css">
	.st0{fill:#4ECDC4;}
	.st1{fill:#247F79;}
</style>
<rect id="XMLID_7_" x="58.1" y="287.5" class="st0" width="714.7" height="61.2"/>
<polygon id="XMLID_6_" class="st1" points="777.1,551.3 64.4,551.3 64.4,302.1 772.8,302.1 "/>
<rect id="XMLID_9_" x="396.7" y="156.4" class="st0" width="47.4" height="40.5"/>
<rect id="XMLID_11_" x="420.6" y="154.1" class="st1" width="23.7" height="40.5"/>
<path id="XMLID_1_" class="st0" d="M700.9,640.9H121.4c-6.6,0-12-5.4-12-12V196c0-6.6,5.4-12,12-12h579.4c6.6,0,12,5.4,12,12v432.9
	C712.9,635.5,707.5,640.9,700.9,640.9z"/>
<path id="XMLID_5_" class="st1" d="M701.9,184H489.3L353.7,641h348.2c6.6,0,11.1-6.5,11.1-13.1V195C713,188.4,708.5,184,701.9,184z"
	/>
<path id="XMLID_2_" class="st0" d="M75.4,595.2H40.8c-6.6,0-12-5.4-12-12V256.4c0-6.6,5.4-12,12-12h34.6c6.6,0,12,5.4,12,12v326.9
	C87.4,589.8,82,595.2,75.4,595.2z"/>
<path id="XMLID_3_" class="st0" d="M780.6,595.2H746c-6.6,0-12-5.4-12-12V256.4c0-6.6,5.4-12,12-12h34.6c6.6,0,12,5.4,12,12v326.9
	C792.6,589.8,787.2,595.2,780.6,595.2z"/>
<path id="XMLID_8_" class="st1" d="M79.6,244.9L60.1,595h15.5c6.6,0,12.4-5.2,12.4-11.8V256.4C88,251.1,84.4,246.5,79.6,244.9z"/>
<path id="XMLID_4_" class="st1" d="M782.6,244.9L763.1,595h15.5c6.6,0,12.4-5.2,12.4-11.8V256.4C791,251.1,787.4,246.5,782.6,244.9z
	"/>
<circle id="XMLID_10_" class="st0" cx="420.8" cy="111.6" r="54.7"/>
<path id="XMLID_14_" class="st1" d="M387.1,154.7c9.3,7.3,21,11.6,33.7,11.6c30.2,0,54.7-24.5,54.7-54.7c0-11.4-3.5-22-9.4-30.7
	C458.1,104.8,437.5,143.9,387.1,154.7z"/>
</svg>
